<mxfile host="app.diagrams.net" modified="2024-03-13T14:34:46.047Z" agent="Mozilla/5.0 (X11; Ubuntu; Linux x86_64; rv:122.0) Gecko/20100101 Firefox/122.0" etag="Wd70b_e308racaqEbDV4" version="24.0.5" type="github">
  <diagram name="Page-1" id="1LuCcKUQfJ27GpsaQAxU">
    <mxGraphModel dx="1090" dy="604" grid="1" gridSize="10" guides="1" tooltips="1" connect="1" arrows="1" fold="1" page="1" pageScale="1" pageWidth="1169" pageHeight="1654" math="0" shadow="0">
      <root>
        <mxCell id="0" />
        <mxCell id="1" parent="0" />
        <mxCell id="z96m8Uc1DGa5XzXXdIDv-1" value="" style="html=1;points=[[0,0,0,0,5],[0,1,0,0,-5],[1,0,0,0,5],[1,1,0,0,-5]];perimeter=orthogonalPerimeter;outlineConnect=0;targetShapes=umlLifeline;portConstraint=eastwest;newEdgeStyle={&quot;curved&quot;:0,&quot;rounded&quot;:0};" vertex="1" parent="1">
          <mxGeometry x="590" y="330" width="10" height="80" as="geometry" />
        </mxCell>
        <mxCell id="z96m8Uc1DGa5XzXXdIDv-2" value="dispatch" style="html=1;verticalAlign=bottom;startArrow=oval;endArrow=block;startSize=8;curved=0;rounded=0;entryX=0;entryY=0;entryDx=0;entryDy=5;" edge="1" target="z96m8Uc1DGa5XzXXdIDv-1" parent="1">
          <mxGeometry relative="1" as="geometry">
            <mxPoint x="520" y="335" as="sourcePoint" />
          </mxGeometry>
        </mxCell>
        <mxCell id="z96m8Uc1DGa5XzXXdIDv-3" value="Opt" style="shape=umlFrame;whiteSpace=wrap;html=1;pointerEvents=0;" vertex="1" parent="1">
          <mxGeometry x="360" y="358" width="580" height="82" as="geometry" />
        </mxCell>
        <mxCell id="z96m8Uc1DGa5XzXXdIDv-4" value="" style="shape=umlLifeline;perimeter=lifelinePerimeter;whiteSpace=wrap;html=1;container=1;dropTarget=0;collapsible=0;recursiveResize=0;outlineConnect=0;portConstraint=eastwest;newEdgeStyle={&quot;curved&quot;:0,&quot;rounded&quot;:0};participant=umlActor;" vertex="1" parent="1">
          <mxGeometry x="400" y="130" width="20" height="520" as="geometry" />
        </mxCell>
        <mxCell id="z96m8Uc1DGa5XzXXdIDv-5" value="Application Automatisation RT" style="shape=umlLifeline;perimeter=lifelinePerimeter;whiteSpace=wrap;html=1;container=1;dropTarget=0;collapsible=0;recursiveResize=0;outlineConnect=0;portConstraint=eastwest;newEdgeStyle={&quot;curved&quot;:0,&quot;rounded&quot;:0};" vertex="1" parent="1">
          <mxGeometry x="700" y="130" width="100" height="520" as="geometry" />
        </mxCell>
        <mxCell id="z96m8Uc1DGa5XzXXdIDv-6" value="" style="html=1;points=[[0,0,0,0,5],[0,1,0,0,-5],[1,0,0,0,5],[1,1,0,0,-5]];perimeter=orthogonalPerimeter;outlineConnect=0;targetShapes=umlLifeline;portConstraint=eastwest;newEdgeStyle={&quot;curved&quot;:0,&quot;rounded&quot;:0};" vertex="1" parent="z96m8Uc1DGa5XzXXdIDv-5">
          <mxGeometry x="45" y="100" width="10" height="360" as="geometry" />
        </mxCell>
        <mxCell id="z96m8Uc1DGa5XzXXdIDv-7" value="Demande d&#39;ajout d&#39;une nouvelle valeur d&#39;un attribut de la fiche" style="html=1;verticalAlign=bottom;endArrow=block;curved=0;rounded=0;" edge="1" parent="1" target="z96m8Uc1DGa5XzXXdIDv-6">
          <mxGeometry width="80" relative="1" as="geometry">
            <mxPoint x="410" y="230" as="sourcePoint" />
            <mxPoint x="650" y="230" as="targetPoint" />
            <Array as="points">
              <mxPoint x="450" y="230" />
            </Array>
          </mxGeometry>
        </mxCell>
        <mxCell id="z96m8Uc1DGa5XzXXdIDv-8" value="Affichage du formulaire adopté" style="html=1;verticalAlign=bottom;endArrow=open;dashed=1;endSize=8;curved=0;rounded=0;" edge="1" parent="1" target="z96m8Uc1DGa5XzXXdIDv-4">
          <mxGeometry relative="1" as="geometry">
            <mxPoint x="740.5" y="270" as="sourcePoint" />
            <mxPoint x="460" y="270" as="targetPoint" />
          </mxGeometry>
        </mxCell>
        <mxCell id="z96m8Uc1DGa5XzXXdIDv-9" value="Sélectionner l&#39;attribut concerné" style="html=1;verticalAlign=bottom;endArrow=block;curved=0;rounded=0;" edge="1" parent="1" target="z96m8Uc1DGa5XzXXdIDv-5">
          <mxGeometry width="80" relative="1" as="geometry">
            <mxPoint x="410" y="310" as="sourcePoint" />
            <mxPoint x="655" y="310" as="targetPoint" />
            <Array as="points">
              <mxPoint x="450" y="310" />
            </Array>
          </mxGeometry>
        </mxCell>
        <mxCell id="z96m8Uc1DGa5XzXXdIDv-10" value="Récupération de la liste des attributs associés" style="html=1;verticalAlign=bottom;endArrow=open;dashed=1;endSize=8;curved=0;rounded=0;" edge="1" parent="1" source="z96m8Uc1DGa5XzXXdIDv-6">
          <mxGeometry x="-0.2821" y="60" relative="1" as="geometry">
            <mxPoint x="830" y="350" as="sourcePoint" />
            <mxPoint x="750" y="350" as="targetPoint" />
            <Array as="points">
              <mxPoint x="810" y="309" />
              <mxPoint x="810" y="340" />
              <mxPoint x="810" y="350" />
            </Array>
            <mxPoint as="offset" />
          </mxGeometry>
        </mxCell>
        <mxCell id="z96m8Uc1DGa5XzXXdIDv-11" value="Mise à jour du formulaire&amp;nbsp;" style="html=1;verticalAlign=bottom;endArrow=open;dashed=1;endSize=8;curved=0;rounded=0;" edge="1" parent="1">
          <mxGeometry relative="1" as="geometry">
            <mxPoint x="744" y="407" as="sourcePoint" />
            <mxPoint x="409.5" y="407" as="targetPoint" />
          </mxGeometry>
        </mxCell>
        <mxCell id="z96m8Uc1DGa5XzXXdIDv-12" value="envoie des informations saisies" style="html=1;verticalAlign=bottom;endArrow=block;curved=0;rounded=0;" edge="1" parent="1">
          <mxGeometry width="80" relative="1" as="geometry">
            <mxPoint x="410" y="471" as="sourcePoint" />
            <mxPoint x="749.5" y="471" as="targetPoint" />
          </mxGeometry>
        </mxCell>
        <mxCell id="z96m8Uc1DGa5XzXXdIDv-13" value="Stockage des données&amp;nbsp;" style="html=1;verticalAlign=bottom;endArrow=block;curved=0;rounded=0;" edge="1" parent="1">
          <mxGeometry x="-0.3103" y="30" width="80" relative="1" as="geometry">
            <mxPoint x="756" y="472" as="sourcePoint" />
            <mxPoint x="751" y="512" as="targetPoint" />
            <Array as="points">
              <mxPoint x="806" y="472" />
              <mxPoint x="806" y="512" />
            </Array>
            <mxPoint as="offset" />
          </mxGeometry>
        </mxCell>
        <mxCell id="z96m8Uc1DGa5XzXXdIDv-14" value="[Liste des attributs non vide]" style="text;html=1;align=center;verticalAlign=middle;resizable=0;points=[];autosize=1;strokeColor=none;fillColor=none;" vertex="1" parent="1">
          <mxGeometry x="430" y="360" width="170" height="30" as="geometry" />
        </mxCell>
      </root>
    </mxGraphModel>
  </diagram>
</mxfile>
